<?xml version="1.0" standalone="no"?>
<!DOCTYPE svg PUBLIC "-//W3C//DTD SVG 20010904//EN"
 "http://www.w3.org/TR/2001/REC-SVG-20010904/DTD/svg10.dtd">
<svg version="1.0" xmlns="http://www.w3.org/2000/svg"
 width="200.000000pt" height="200.000000pt" viewBox="0 0 200.000000 200.000000"
 preserveAspectRatio="xMidYMid meet">
<metadata>
Created by potrace 1.14, written by Peter Selinger 2001-2017
</metadata>
<g transform="translate(0.000000,200.000000) scale(0.100000,-0.100000)"
fill="#000000" stroke="none">
<path d="M1206 1991 c-3 -4 -27 -11 -53 -15 -66 -9 -189 -64 -267 -120 -139
-99 -247 -270 -272 -433 -6 -40 -5 -42 22 -49 16 -4 41 -13 56 -20 27 -14 27
-14 33 23 32 186 150 349 313 431 105 52 172 66 297 60 216 -11 389 -126 485
-322 83 -168 82 -329 -2 -505 -94 -197 -295 -321 -519 -321 -96 0 -162 15
-256 59 -36 17 -66 30 -67 29 -12 -29 -36 -111 -34 -114 15 -15 146 -64 205
-78 254 -57 540 41 698 242 279 350 166 860 -234 1060 -44 22 -106 46 -138 52
-32 6 -66 16 -75 21 -22 11 -185 12 -192 0z" fill="#CF2030"/>
<path d="M1219 1663 c-2 -10 -2 9 5 -193 8 -183 15 -280 23 -292 2 -5 28 -8
58 -8 30 0 56 3 58 8 3 4 8 81 11 172 4 91 9 200 12 243 l5 77 -85 0 c-47 0
-87 -3 -87 -7z" fill="#CF2030"/>
<path d="M397 1176 c-88 -32 -155 -104 -178 -190 -14 -51 -6 -142 15 -188 68
-143 237 -204 379 -135 65 32 100 70 135 146 21 45 24 64 20 120 -3 36 -13 82
-23 101 -24 49 -82 108 -130 132 -51 27 -165 34 -218 14z" fill="#1679b5"/>
<path d="M1243 1105 c-12 -8 -27 -30 -33 -49 -27 -83 43 -153 125 -126 102 34
75 190 -32 190 -21 0 -48 -7 -60 -15z" fill="#CF2030"/>
<path d="M79 518 c-20 -11 -46 -38 -58 -58 -20 -35 -21 -53 -21 -249 l0 -211
490 0 490 0 0 214 c0 205 -1 214 -23 247 -43 64 -78 79 -188 79 l-98 0 -86
-100 c-48 -55 -91 -100 -95 -100 -4 0 -47 45 -95 100 l-87 100 -97 0 c-79 0
-102 -4 -132 -22z" fill="#1679b5"/>
</g>
</svg>
